<svg id="Capa_1" enable-background="new 0 0 512.07 512.07" height="512" viewBox="0 0 512.07 512.07" width="512" xmlns="http://www.w3.org/2000/svg"><g><path d="m497.035 482.07h-24.155v-243.849l3.059 2.871c2.896 2.718 6.583 4.063 10.264 4.063 3.998 0 7.987-1.589 10.939-4.733 5.67-6.04 5.37-15.533-.67-21.203l-23.592-22.147v-132.544c0-8.284-6.716-15-15-15h-89.288c-8.284 0-15 6.716-15 15v20.563l-86.316-81.029c-3.028-2.842-6.924-4.183-10.771-4.054-3.848-.13-7.746 1.211-10.774 4.054l-229.195 215.157c-6.04 5.67-6.34 15.163-.67 21.203 2.953 3.146 6.941 4.733 10.939 4.733 3.68 0 7.369-1.347 10.264-4.063l2.046-1.921v242.899h-24.08c-8.284 0-15 6.716-15 15s6.716 15 15 15h482c8.284 0 15-6.716 15-15s-6.716-15-15-15zm-113.443-402.542h59.288v89.382l-59.288-55.657zm-314.477 131.481 187.389-175.911 186.376 174.961v272.011h-28.623v-95.858c0-8.284-6.716-15-15-15h-19.345l.585-129.525c0-65.546-55.833-118.871-124.462-118.871s-124.462 53.324-124.462 118.87l.004 148.665c0 8.284 6.716 15 15 15 .862 0 1.702-.089 2.524-.229v76.947h-79.986zm92.458 30.677c0-49.004 42.375-88.871 94.462-88.871s94.462 39.867 94.462 88.804l-.411 90.83c-8.45-10.398-20.447-17.792-34.132-20.338 3.634-8.145 5.672-17.152 5.672-26.631v-53.752c0-8.284-6.716-15-15-15h-101.182c-8.284 0-15 6.716-15 15v53.752c0 9.48 2.038 18.487 5.672 26.631-13.91 2.588-26.071 10.189-34.541 20.857zm58.871 43.793v-38.752h71.182v38.752c0 19.625-15.966 35.591-35.591 35.591s-35.591-15.966-35.591-35.591zm-41.343 83.21c0-15.199 12.365-27.564 27.564-27.564h14.704c10.066 6.293 21.944 9.945 34.665 9.945s24.599-3.652 34.665-9.945h14.704c15.199 0 27.564 12.365 27.564 27.564v2.523h-108.556c-8.284 0-15 6.716-15 15v95.858h-30.31zm60.31 32.523h144.846v80.858h-144.846z"/><path d="m326.764 439.838c-.651-6.276-5.256-11.586-11.381-13.09-6.321-1.553-13.055 1.308-16.414 6.863-3.219 5.323-2.692 12.288 1.19 17.12 4.009 4.99 10.991 6.875 16.968 4.613 6.342-2.401 10.185-8.807 9.637-15.506z"/></g></svg>